<svg width="142" height="125" viewBox="0 0 142 125" fill="none" xmlns="http://www.w3.org/2000/svg">
<rect width="142" height="125" fill="none"/>
<path d="M69.2591 1.07895C70.0247 -0.275173 71.9753 -0.275176 72.741 1.07895L120.959 86.3544C121.713 87.6876 120.75 89.3388 119.218 89.3388H22.7819C21.2502 89.3388 20.287 87.6876 21.0409 86.3544L69.2591 1.07895Z" fill="#36A2F9" fill-opacity="0.7"/>
<path d="M48.8954 36.2939C49.6611 34.9398 51.6116 34.9398 52.3773 36.2939L100.595 121.569C101.349 122.903 100.386 124.554 98.8545 124.554H2.41823C0.886597 124.554 -0.0766131 122.903 0.677261 121.569L48.8954 36.2939Z" fill="#DF36F9" fill-opacity="0.7"/>
<path d="M89.6227 36.2939C90.3883 34.9398 92.3389 34.9398 93.1046 36.2939L141.323 121.569C142.077 122.903 141.113 124.554 139.582 124.554H43.1455C41.6139 124.554 40.6507 122.903 41.4045 121.569L89.6227 36.2939Z" fill="#8E36F9" fill-opacity="0.7"/>
</svg>
